<svg aria-hidden="true" style="position: absolute; width: 0; height: 0; overflow: hidden;" version="1.1" xmlns="http://www.w3.org/2000/svg" xmlns:xlink="http://www.w3.org/1999/xlink">
<defs>
<symbol id="icon-home" viewBox="0 0 26 28">
<path d="M22 15.5v7.5c0 0.547-0.453 1-1 1h-6v-6h-4v6h-6c-0.547 0-1-0.453-1-1v-7.5c0-0.031 0.016-0.063 0.016-0.094l8.984-7.406 8.984 7.406c0.016 0.031 0.016 0.063 0.016 0.094zM25.484 14.422l-0.969 1.156c-0.078 0.094-0.203 0.156-0.328 0.172h-0.047c-0.125 0-0.234-0.031-0.328-0.109l-10.813-9.016-10.813 9.016c-0.109 0.078-0.234 0.125-0.375 0.109-0.125-0.016-0.25-0.078-0.328-0.172l-0.969-1.156c-0.172-0.203-0.141-0.531 0.063-0.703l11.234-9.359c0.656-0.547 1.719-0.547 2.375 0l3.813 3.187v-3.047c0-0.281 0.219-0.5 0.5-0.5h3c0.281 0 0.5 0.219 0.5 0.5v6.375l3.422 2.844c0.203 0.172 0.234 0.5 0.063 0.703z"></path>
</symbol>
<symbol id="icon-edit" viewBox="0 0 28 28">
<path d="M13.875 18.5l1.813-1.813-2.375-2.375-1.813 1.813v0.875h1.5v1.5h0.875zM20.75 7.25c-0.141-0.141-0.375-0.125-0.516 0.016l-5.469 5.469c-0.141 0.141-0.156 0.375-0.016 0.516s0.375 0.125 0.516-0.016l5.469-5.469c0.141-0.141 0.156-0.375 0.016-0.516zM22 16.531v2.969c0 2.484-2.016 4.5-4.5 4.5h-13c-2.484 0-4.5-2.016-4.5-4.5v-13c0-2.484 2.016-4.5 4.5-4.5h13c0.625 0 1.25 0.125 1.828 0.391 0.141 0.063 0.25 0.203 0.281 0.359 0.031 0.172-0.016 0.328-0.141 0.453l-0.766 0.766c-0.141 0.141-0.328 0.187-0.5 0.125-0.234-0.063-0.469-0.094-0.703-0.094h-13c-1.375 0-2.5 1.125-2.5 2.5v13c0 1.375 1.125 2.5 2.5 2.5h13c1.375 0 2.5-1.125 2.5-2.5v-1.969c0-0.125 0.047-0.25 0.141-0.344l1-1c0.156-0.156 0.359-0.187 0.547-0.109s0.313 0.25 0.313 0.453zM20.5 5l4.5 4.5-10.5 10.5h-4.5v-4.5zM27.438 7.063l-1.437 1.437-4.5-4.5 1.437-1.437c0.578-0.578 1.547-0.578 2.125 0l2.375 2.375c0.578 0.578 0.578 1.547 0 2.125z"></path>
</symbol>
<symbol id="icon-twitter-square" viewBox="0 0 24 28">
<path d="M20 9.531c-0.594 0.266-1.219 0.438-1.891 0.531 0.688-0.406 1.203-1.062 1.453-1.828-0.641 0.375-1.344 0.656-2.094 0.797-0.594-0.641-1.453-1.031-2.391-1.031-1.813 0-3.281 1.469-3.281 3.281 0 0.25 0.016 0.516 0.078 0.75-2.734-0.141-5.156-1.437-6.781-3.437-0.281 0.484-0.453 1.062-0.453 1.656 0 1.141 0.531 2.141 1.422 2.734-0.547-0.016-1.062-0.172-1.563-0.406v0.031c0 1.594 1.203 2.922 2.703 3.219-0.281 0.078-0.5 0.125-0.797 0.125-0.203 0-0.406-0.031-0.609-0.063 0.422 1.297 1.625 2.25 3.063 2.281-1.125 0.875-2.531 1.406-4.078 1.406-0.266 0-0.531-0.016-0.781-0.047 1.453 0.922 3.172 1.469 5.031 1.469 6.031 0 9.344-5 9.344-9.344 0-0.141 0-0.281-0.016-0.422 0.641-0.453 1.203-1.031 1.641-1.703zM24 6.5v15c0 2.484-2.016 4.5-4.5 4.5h-15c-2.484 0-4.5-2.016-4.5-4.5v-15c0-2.484 2.016-4.5 4.5-4.5h15c2.484 0 4.5 2.016 4.5 4.5z"></path>
</symbol>
<symbol id="icon-facebook-square" viewBox="0 0 24 28">
<path d="M19.5 2c2.484 0 4.5 2.016 4.5 4.5v15c0 2.484-2.016 4.5-4.5 4.5h-2.938v-9.297h3.109l0.469-3.625h-3.578v-2.312c0-1.047 0.281-1.75 1.797-1.75l1.906-0.016v-3.234c-0.328-0.047-1.469-0.141-2.781-0.141-2.766 0-4.672 1.687-4.672 4.781v2.672h-3.125v3.625h3.125v9.297h-8.313c-2.484 0-4.5-2.016-4.5-4.5v-15c0-2.484 2.016-4.5 4.5-4.5h15z"></path>
</symbol>
<symbol id="icon-group" viewBox="0 0 30 28">
<path d="M9.266 14c-1.625 0.047-3.094 0.75-4.141 2h-2.094c-1.563 0-3.031-0.75-3.031-2.484 0-1.266-0.047-5.516 1.937-5.516 0.328 0 1.953 1.328 4.062 1.328 0.719 0 1.406-0.125 2.078-0.359-0.047 0.344-0.078 0.688-0.078 1.031 0 1.422 0.453 2.828 1.266 4zM26 23.953c0 2.531-1.672 4.047-4.172 4.047h-13.656c-2.5 0-4.172-1.516-4.172-4.047 0-3.531 0.828-8.953 5.406-8.953 0.531 0 2.469 2.172 5.594 2.172s5.063-2.172 5.594-2.172c4.578 0 5.406 5.422 5.406 8.953zM10 4c0 2.203-1.797 4-4 4s-4-1.797-4-4 1.797-4 4-4 4 1.797 4 4zM21 10c0 3.313-2.688 6-6 6s-6-2.688-6-6 2.688-6 6-6 6 2.688 6 6zM30 13.516c0 1.734-1.469 2.484-3.031 2.484h-2.094c-1.047-1.25-2.516-1.953-4.141-2 0.812-1.172 1.266-2.578 1.266-4 0-0.344-0.031-0.688-0.078-1.031 0.672 0.234 1.359 0.359 2.078 0.359 2.109 0 3.734-1.328 4.062-1.328 1.984 0 1.937 4.25 1.937 5.516zM28 4c0 2.203-1.797 4-4 4s-4-1.797-4-4 1.797-4 4-4 4 1.797 4 4z"></path>
</symbol>
<symbol id="icon-google-plus-square" viewBox="0 0 24 28">
<path d="M14.328 14.141c0-0.391-0.047-0.703-0.094-1h-5.656v2.063h3.391c-0.125 0.875-1.016 2.578-3.391 2.578-2.063 0-3.734-1.687-3.734-3.781s1.672-3.781 3.734-3.781c1.156 0 1.937 0.484 2.391 0.922l1.625-1.578c-1.047-0.969-2.406-1.563-4.016-1.563-3.328 0-6 2.688-6 6s2.672 6 6 6c3.453 0 5.75-2.438 5.75-5.859zM19.719 14.859h1.703v-1.719h-1.703v-1.719h-1.719v1.719h-1.719v1.719h1.719v1.719h1.719v-1.719zM24 6.5v15c0 2.484-2.016 4.5-4.5 4.5h-15c-2.484 0-4.5-2.016-4.5-4.5v-15c0-2.484 2.016-4.5 4.5-4.5h15c2.484 0 4.5 2.016 4.5 4.5z"></path>
</symbol>
<symbol id="icon-tablet" viewBox="0 0 18 28">
<path d="M10 22c0-0.547-0.453-1-1-1s-1 0.453-1 1 0.453 1 1 1 1-0.453 1-1zM16 19.5v-15c0-0.266-0.234-0.5-0.5-0.5h-13c-0.266 0-0.5 0.234-0.5 0.5v15c0 0.266 0.234 0.5 0.5 0.5h13c0.266 0 0.5-0.234 0.5-0.5zM18 4.5v17c0 1.375-1.125 2.5-2.5 2.5h-13c-1.375 0-2.5-1.125-2.5-2.5v-17c0-1.375 1.125-2.5 2.5-2.5h13c1.375 0 2.5 1.125 2.5 2.5z"></path>
</symbol>
</defs>
</svg>
